<svg width="842" height="842" viewBox="0 0 842 842" fill="none" xmlns="http://www.w3.org/2000/svg">
<path d="M232.579 220.983C264.12 225.582 291.93 244.107 308.329 271.445L421.335 459.816V532.341L378.409 436.085C366.71 409.854 350.897 385.659 331.568 364.419L305.904 336.218L279.044 298.605C260.203 272.221 232.102 253.922 200.356 247.366L180.542 243.274C134.538 233.774 95.309 203.946 73.8489 162.149L36.302 89.0215L74.6834 138.755C107.708 181.547 156.066 209.828 209.546 217.625L232.579 220.983Z" fill="black"/>
<path d="M275.268 467.988C311.364 467.988 340.626 429.115 340.626 381.163C340.626 333.21 311.364 294.337 275.268 294.337C239.172 294.337 209.91 333.21 209.91 381.163C209.91 429.115 239.172 467.988 275.268 467.988Z" fill="black"/>
<path d="M137.101 218.748L160.589 229.985V331.198C160.589 356.243 163.638 381.195 169.669 405.502L195.31 508.847H181.909C162.058 508.847 145.792 493.083 145.164 473.238L137.101 218.748Z" fill="black"/>
<path d="M609.119 220.754C577.588 225.424 549.821 244.013 533.483 271.389L420.91 460.016L421.076 532.541L463.781 436.187C475.419 409.929 491.178 385.7 510.459 364.414L536.057 336.154L562.831 298.48C581.611 272.055 609.673 253.692 641.402 247.063L661.207 242.926C707.189 233.32 746.351 203.403 767.714 161.557L805.095 88.3439L766.826 138.165C733.9 181.033 685.606 209.424 632.143 217.343L609.119 220.754Z" fill="black"/>
<path d="M566.994 467.855C530.898 467.937 501.547 429.131 501.438 381.179C501.328 333.227 530.501 294.287 566.597 294.205C602.693 294.122 632.044 332.928 632.153 380.881C632.263 428.833 603.09 467.772 566.994 467.855Z" fill="black"/>
<path d="M704.593 218.301L681.129 229.591L681.36 330.804C681.417 355.848 678.425 380.807 672.451 405.128L647.045 508.532L660.445 508.501C680.296 508.454 696.527 492.656 697.109 472.809L704.593 218.301Z" fill="black"/>
<path d="M298.756 396.485C310.6 396.485 320.201 378.191 320.201 355.626C320.201 333.06 310.6 314.767 298.756 314.767C286.912 314.767 277.31 333.06 277.31 355.626C277.31 378.191 286.912 396.485 298.756 396.485Z" fill="white"/>
<path d="M590.825 396.485C602.669 396.485 612.27 378.191 612.27 355.626C612.27 333.06 602.669 314.767 590.825 314.767C578.981 314.767 569.379 333.06 569.379 355.626C569.379 378.191 578.981 396.485 590.825 396.485Z" fill="white"/>
</svg>
